<svg xmlns="http://www.w3.org/2000/svg" width="12.001" height="12.167" viewBox="0 0 12.001 12.167">
  <g id="Group_61" data-name="Group 61" transform="translate(-24.093 -23.926)">
    <path id="Path_44" data-name="Path 44" d="M29.641,46.78a.433.433,0,0,1,.612.614l-1.036,1.034-.621.621a2.492,2.492,0,1,1-3.524-3.524l2.451-2.451a2.492,2.492,0,0,1,3.524,0,.433.433,0,1,1-.613.613,1.625,1.625,0,0,0-2.3,0l-2.451,2.451a1.625,1.625,0,0,0,2.3,2.3l.621-.621Z" transform="translate(0 -14.1)" fill="#5d5d5d" stroke="#5d5d5d" stroke-width="0.5"/>
    <path id="Path_45" data-name="Path 45" d="M46.659,27.341a.433.433,0,0,1-.612-.614l1.036-1.034.621-.621A2.492,2.492,0,1,1,51.227,28.6l-2.451,2.451a2.492,2.492,0,0,1-3.524,0,.433.433,0,0,1,.613-.613,1.625,1.625,0,0,0,2.3,0l2.451-2.451a1.625,1.625,0,0,0-2.3-2.3l-.621.621Z" transform="translate(-16.28)" fill="#5d5d5d" stroke="#5d5d5d" stroke-width="0.5"/>
  </g>
</svg>
