<?xml version="1.0" encoding="UTF-8" standalone="no"?>
<svg
   xmlns:dc="http://purl.org/dc/elements/1.1/"
   xmlns:cc="http://creativecommons.org/ns#"
   xmlns:rdf="http://www.w3.org/1999/02/22-rdf-syntax-ns#"
   xmlns:svg="http://www.w3.org/2000/svg"
   xmlns="http://www.w3.org/2000/svg"
   xmlns:sodipodi="http://sodipodi.sourceforge.net/DTD/sodipodi-0.dtd"
   xmlns:inkscape="http://www.inkscape.org/namespaces/inkscape"
   width="100"
   height="100"
   viewBox="0 0 100 100"
   version="1.1"
   id="svg36"
   sodipodi:docname="btn_subscribe_normal.svg"
   inkscape:version="0.92.4 5da689c313, 2019-01-14">
  <metadata
     id="metadata40">
    <rdf:RDF>
      <cc:Work
         rdf:about="">
        <dc:format>image/svg+xml</dc:format>
        <dc:type
           rdf:resource="http://purl.org/dc/dcmitype/StillImage" />
      </cc:Work>
    </rdf:RDF>
  </metadata>
  <sodipodi:namedview
     pagecolor="#ffffff"
     bordercolor="#666666"
     borderopacity="1"
     objecttolerance="10"
     gridtolerance="10"
     guidetolerance="10"
     inkscape:pageopacity="0"
     inkscape:pageshadow="2"
     inkscape:window-width="1920"
     inkscape:window-height="1168"
     id="namedview38"
     showgrid="false"
     inkscape:zoom="9.93"
     inkscape:cx="50"
     inkscape:cy="45.971803"
     inkscape:window-x="2560"
     inkscape:window-y="16"
     inkscape:window-maximized="1"
     inkscape:current-layer="Group_36" />
  <defs
     id="defs21">
    <filter
       id="Rectangle_23"
       x="0"
       y="0"
       width="100"
       height="100"
       filterUnits="userSpaceOnUse">
      <feOffset
         dy="2"
         input="SourceAlpha"
         id="feOffset10" />
      <feGaussianBlur
         stdDeviation="5"
         result="blur"
         id="feGaussianBlur12" />
      <feFlood
         flood-opacity="0.122"
         id="feFlood14" />
      <feComposite
         operator="in"
         in2="blur"
         id="feComposite16"
         result="result1" />
      <feComposite
         in="SourceGraphic"
         in2="result1"
         id="feComposite18" />
    </filter>
  </defs>
  <g
     id="btn_subscribe_normal"
     transform="translate(15 13)">
    <g
       transform="matrix(1, 0, 0, 1, -15, -13)"
       filter="url(#Rectangle_23)"
       id="g24" />
    <g
       id="Eye"
       transform="matrix(2.203411,0,0,2.203411,-41.01769,-47.541575)">
      <g
         id="Group_33"
         data-name="Group 33"
         transform="translate(12,20.737)">
        <path
           id="Path_31"
           data-name="Path 31"
           d="M 47.216,34.458 C 46.837,33.937 37.221,22 25,22 12.779,22 3.163,33.937 2.784,34.458 a 1.283,1.283 0 0 0 0,1.611 C 3.163,36.59 12.779,48.527 25,48.527 c 12.221,0 21.837,-11.985 22.216,-12.506 a 1.216,1.216 0 0 0 0,-1.563 z M 25,45.258 A 9.995,9.995 0 1 1 34.995,35.263 10.027,10.027 0 0 1 25,45.258 Z M 5.484,35.263 a 37.776,37.776 0 0 1 9.758,-7.911 12.511,12.511 0 0 0 -0.047,15.821 39.249,39.249 0 0 1 -9.711,-7.91 z m 29.274,7.911 a 12.593,12.593 0 0 0 0,-15.821 40.678,40.678 0 0 1 9.758,7.911 38.791,38.791 0 0 1 -9.758,7.91 z"
           transform="translate(-2.5,-22)"
           inkscape:connector-curvature="0"
           style="fill:#ffffff;fill-rule:evenodd" />
        <path
           id="Path_32"
           data-name="Path 32"
           d="m 43.632,37.9 c -0.237,0 -0.426,0.047 -0.663,0.047 a 2.859,2.859 0 0 1 -2.226,4.689 2.811,2.811 0 0 1 -2.368,-1.279 6.1,6.1 0 0 0 -0.474,2.274 5.732,5.732 0 1 0 5.731,-5.731 z"
           transform="translate(-21.132,-30.368)"
           inkscape:connector-curvature="0"
           style="fill:#ffffff;fill-rule:evenodd" />
      </g>
      <g
         id="Group_36"
         data-name="Group 36"
         transform="translate(-1614.597,-396.597)">
        <circle
           id="Ellipse_10"
           data-name="Ellipse 10"
           cx="9"
           cy="9"
           r="9"
           transform="translate(1652.597,434.597)"
           style="fill:#205b36;fill-opacity:1" />
        <g
           id="Group_19"
           data-name="Group 19"
           transform="translate(1656.439,438.437)">
          <line
             id="Line_19"
             data-name="Line 19"
             x2="10"
             transform="translate(0.158,5.16)"
             x1="0"
             y1="0"
             y2="0"
             style="fill:none;stroke:#ffffff;stroke-width:2" />
          <line
             id="Line_20"
             data-name="Line 20"
             x2="10.321"
             transform="rotate(90,2.579,2.579)"
             x1="0"
             y1="0"
             y2="0"
             style="fill:none;stroke:#ffffff;stroke-width:2" />
        </g>
      </g>
    </g>
  </g>
</svg>
