<svg xmlns="http://www.w3.org/2000/svg" width="45.002" height="31.42" viewBox="0 0 45.002 31.42">
  <g id="btn_subscribe_normal" transform="translate(-58.004)">
    <g id="Eye">
      <g id="Group_33" data-name="Group 33">
        <g id="Path_31" data-name="Path 31">
          <path id="Path_57" data-name="Path 57" d="M630,243.78c-.38-.52-10-12.45-22.21-12.45S586,243.26,585.6,243.78a1.29,1.29,0,0,0,0,1.62c.38.52,10,12.45,22.22,12.45a18.462,18.462,0,0,0,3.5-.33,8.83,8.83,0,0,1,1-4,9.8,9.8,0,0,1-4.48,1.07,10,10,0,1,1,8.73-5.16,9,9,0,0,1,3.16-.81,12.59,12.59,0,0,0-2.14-11.93,40.491,40.491,0,0,1,9.76,7.91,38.874,38.874,0,0,1-4.55,4.34,8.92,8.92,0,0,1,2.59,1.22,38.1,38.1,0,0,0,4.66-4.8A1.22,1.22,0,0,0,630,243.78Zm-32,8.72a39.18,39.18,0,0,1-9.71-7.91,37.818,37.818,0,0,1,9.76-7.91A12.52,12.52,0,0,0,598,252.5Z" transform="translate(-527.31 -231.33)" fill="#fff" fill-rule="evenodd"/>
        </g>
        <g id="Path_32" data-name="Path 32">
          <path id="Path_58" data-name="Path 58" d="M607.82,238.86h-.67a2.85,2.85,0,0,1-.36,4,2.89,2.89,0,0,1-4.23-.61,6.32,6.32,0,0,0-.48,2.27,5.74,5.74,0,1,0,5.74-5.73Z" transform="translate(-527.31 -231.33)" fill="#fff" fill-rule="evenodd"/>
        </g>
      </g>
      <g id="Group_36" data-name="Group 36">
        <g id="Group_19" data-name="Group 19">
          <g id="Line_20" data-name="Line 20">
            <path id="Path_59" data-name="Path 59" d="M98,25.26v2H94v4.16H92V27.26H88v-2h4V21.1h2v4.16Z" fill="#fff"/>
          </g>
        </g>
      </g>
    </g>
  </g>
</svg>
