<?xml version="1.0" encoding="UTF-8"?>
<svg width="100" height="100" viewBox="28 30 40 40" xmlns="http://www.w3.org/2000/svg">
<g transform="translate(15 13)">
<path transform="translate(16.107 23.553)" d="M31.577,20.56l.881.881a1.111,1.111,0,0,1-1.571,1.571l-2.778-2.778a1.111,1.111,0,0,1,0-1.571l2.778-2.778a1.111,1.111,0,0,1,1.571,1.571l-.881.881H32.5a5.279,5.279,0,1,1,0,10.558h-7.22a5.279,5.279,0,0,1-1.058-10.451,1.111,1.111,0,1,1,.443,2.178,3.057,3.057,0,0,0,.615,6.051H32.5a3.056,3.056,0,1,0,0-6.112ZM10.847,12.87l-8.624,7.1V20H16.67a1.111,1.111,0,1,1,0,2.223H1.111A1.111,1.111,0,0,1,0,21.115v-20A1.111,1.111,0,0,1,1.111,0H31.117a1.111,1.111,0,0,1,1.111,1.111V12.225a1.111,1.111,0,1,1-2.223,0V6.162l-6.826,5.31,3.643,3a1.111,1.111,0,1,1-1.413,1.716L21.381,12.87,16.8,16.436a1.113,1.113,0,0,1-1.365,0L10.847,12.87ZM2.223,17.093h0l6.826-5.622L2.223,6.162Zm13.892-2.943,13.892-10.8V2.223H2.223V3.346Z" fill="#fff" data-name="Pfad 73"/>
</g>
</svg>
