<svg xmlns="http://www.w3.org/2000/svg" width="45.001" height="31.28" viewBox="0 0 45.001 31.28">
  <g id="Group_70" data-name="Group 70" transform="translate(-2640 -338.5)">
    <g id="Group_35" data-name="Group 35" transform="translate(2639.995 338)">
      <g id="Group_33" data-name="Group 33">
        <g id="Path_31" data-name="Path 31">
          <path id="Path_60" data-name="Path 60" d="M572,244.28c-.38-.52-10-12.45-22.21-12.45S528,243.76,527.6,244.28a1.28,1.28,0,0,0,0,1.61c.38.53,10,12.46,22.22,12.46a18.462,18.462,0,0,0,3.5-.33,8.83,8.83,0,0,1,1-4,9.8,9.8,0,0,1-4.48,1.07,10,10,0,1,1,8.74-5.16,9,9,0,0,1,3.15-.81,12.61,12.61,0,0,0-2.13-11.93,40.39,40.39,0,0,1,9.75,7.91,40.558,40.558,0,0,1-4.54,4.35,8.59,8.59,0,0,1,2.58,1.21,38.1,38.1,0,0,0,4.66-4.8,1.22,1.22,0,0,0-.05-1.58ZM540,253a39.18,39.18,0,0,1-9.71-7.91,37.82,37.82,0,0,1,9.76-7.91A12.52,12.52,0,0,0,540,253Z" transform="translate(-527.31 -231.33)" fill="#fff" fill-rule="evenodd"/>
        </g>
        <g id="Path_32" data-name="Path 32">
          <path id="Path_61" data-name="Path 61" d="M549.82,239.36h-.67a2.86,2.86,0,0,1-.36,4,2.81,2.81,0,0,1-1.86.66,2.77,2.77,0,0,1-2.37-1.28,6.2,6.2,0,0,0-.47,2.28,5.73,5.73,0,1,0,5.73-5.73Z" transform="translate(-527.31 -231.33)" fill="#fff" fill-rule="evenodd"/>
        </g>
      </g>
    </g>
    <g id="ico_active" data-name="ico active" transform="translate(2639.995 338)">
      <g id="Group_19" data-name="Group 19">
        <g id="Path_39" data-name="Path 39">
          <path id="Path_62" data-name="Path 62" d="M40.76,24.34l-7.45,7.44-3.88-3.9,1.41-1.41,2.47,2.48,6.03-6.02Z" fill="#fff"/>
        </g>
      </g>
    </g>
  </g>
</svg>
