<?xml version="1.0" encoding="UTF-8" standalone="no"?>
<svg
   xmlns:dc="http://purl.org/dc/elements/1.1/"
   xmlns:cc="http://creativecommons.org/ns#"
   xmlns:rdf="http://www.w3.org/1999/02/22-rdf-syntax-ns#"
   xmlns:svg="http://www.w3.org/2000/svg"
   xmlns="http://www.w3.org/2000/svg"
   xmlns:sodipodi="http://sodipodi.sourceforge.net/DTD/sodipodi-0.dtd"
   xmlns:inkscape="http://www.inkscape.org/namespaces/inkscape"
   width="100"
   height="100"
   viewBox="0 0 100 100"
   version="1.1"
   id="svg199"
   sodipodi:docname="btn_subscribe_active.svg"
   inkscape:version="0.92.4 5da689c313, 2019-01-14">
  <metadata
     id="metadata203">
    <rdf:RDF>
      <cc:Work
         rdf:about="">
        <dc:format>image/svg+xml</dc:format>
        <dc:type
           rdf:resource="http://purl.org/dc/dcmitype/StillImage" />
      </cc:Work>
    </rdf:RDF>
  </metadata>
  <sodipodi:namedview
     pagecolor="#ffffff"
     bordercolor="#666666"
     borderopacity="1"
     objecttolerance="10"
     gridtolerance="10"
     guidetolerance="10"
     inkscape:pageopacity="0"
     inkscape:pageshadow="2"
     inkscape:window-width="1920"
     inkscape:window-height="1168"
     id="namedview201"
     showgrid="false"
     inkscape:zoom="9.93"
     inkscape:cx="50"
     inkscape:cy="36.846011"
     inkscape:window-x="2560"
     inkscape:window-y="16"
     inkscape:window-maximized="1"
     inkscape:current-layer="btn_subscribe_active" />
  <defs
     id="defs185">
    <filter
       id="Rectangle_26"
       x="0"
       y="0"
       width="100"
       height="100"
       filterUnits="userSpaceOnUse">
      <feOffset
         dy="2"
         input="SourceAlpha"
         id="feOffset174" />
      <feGaussianBlur
         stdDeviation="5"
         result="blur"
         id="feGaussianBlur176" />
      <feFlood
         flood-opacity="0.122"
         id="feFlood178" />
      <feComposite
         operator="in"
         in2="blur"
         id="feComposite180"
         result="result1" />
      <feComposite
         in="SourceGraphic"
         in2="result1"
         id="feComposite182" />
    </filter>
  </defs>
  <g
     id="btn_subscribe_active"
     transform="translate(15 13)">
    <g
       transform="matrix(1, 0, 0, 1, -15, -13)"
       filter="url(#Rectangle_26)"
       id="g188" />
    <g
       id="g1078"
       transform="matrix(2.1681577,0,0,2.1681577,-41.969609,-48.357116)">
      <g
         transform="translate(10.5,-0.263)"
         data-name="Group 35"
         id="Group_35">
        <g
           transform="translate(2.5,22)"
           data-name="Group 33"
           id="Group_33">
          <path
             transform="translate(-2.5,-22)"
             d="M 47.216,34.458 C 46.837,33.937 37.221,22 25,22 12.779,22 3.163,33.937 2.784,34.458 a 1.283,1.283 0 0 0 0,1.611 C 3.163,36.59 12.779,48.527 25,48.527 c 12.221,0 21.837,-11.985 22.216,-12.506 a 1.216,1.216 0 0 0 0,-1.563 z M 25,45.258 A 9.995,9.995 0 1 1 34.995,35.263 10.027,10.027 0 0 1 25,45.258 Z M 5.484,35.263 a 37.776,37.776 0 0 1 9.758,-7.911 12.511,12.511 0 0 0 -0.047,15.821 39.249,39.249 0 0 1 -9.711,-7.91 z m 29.274,7.911 a 12.593,12.593 0 0 0 0,-15.821 40.678,40.678 0 0 1 9.758,7.911 38.791,38.791 0 0 1 -9.758,7.91 z"
             data-name="Path 31"
             id="Path_31"
             inkscape:connector-curvature="0"
             style="fill:#ffffff;fill-rule:evenodd" />
          <path
             transform="translate(-21.132,-30.368)"
             d="m 43.632,37.9 c -0.237,0 -0.426,0.047 -0.663,0.047 a 2.859,2.859 0 0 1 -2.226,4.689 2.811,2.811 0 0 1 -2.368,-1.279 6.1,6.1 0 0 0 -0.474,2.274 5.732,5.732 0 1 0 5.731,-5.731 z"
             data-name="Path 32"
             id="Path_32"
             inkscape:connector-curvature="0"
             style="fill:#ffffff;fill-rule:evenodd" />
        </g>
      </g>
      <g
         transform="translate(39,39)"
         data-name="ico active"
         id="ico_active">
        <circle
           r="9"
           cy="9"
           cx="9"
           data-name="Ellipse 10"
           id="Ellipse_10"
           style="fill:#7bb53b" />
        <g
           transform="translate(4.127,5.877)"
           data-name="Group 19"
           id="Group_19">
          <path
             transform="translate(1.577,-7.144)"
             d="M -1.577,10.684 1.61,13.871 8.337,7.144"
             data-name="Path 39"
             id="Path_39"
             inkscape:connector-curvature="0"
             style="fill:none;stroke:#ffffff;stroke-width:2" />
        </g>
      </g>
    </g>
  </g>
</svg>
