<svg xmlns="http://www.w3.org/2000/svg" xmlns:xlink="http://www.w3.org/1999/xlink" width="24.463" height="26" viewBox="0 0 24.463 26">
  <defs>
    <filter id="Path_138" x="0" y="0" width="24.463" height="26" filterUnits="userSpaceOnUse">
      <feOffset dy="3" input="SourceAlpha"/>
      <feGaussianBlur stdDeviation="3" result="blur"/>
      <feFlood flood-opacity="0.161"/>
      <feComposite operator="in" in2="blur"/>
      <feComposite in="SourceGraphic"/>
    </filter>
  </defs>
  <g id="ico_humidity" transform="translate(9 6)">
    <g transform="matrix(1, 0, 0, 1, -9, -6)" filter="url(#Path_138)">
      <g id="Path_138-2" data-name="Path 138" transform="translate(15.46 14) rotate(180)" fill="#868072">
        <path d="M 3.221231698989868 7.351160526275635 C 0.982092559337616 5.512193202972412 0.5000037550926208 4.103378295898438 0.5000037550926208 3.231539964675903 C 0.5000037550926208 1.725360035896301 1.725363731384277 0.5 3.231543779373169 0.5 C 4.737723827362061 0.5 5.963083744049072 1.725360035896301 5.963083744049072 3.231539964675903 C 5.963083744049072 4.379959583282471 5.041144371032715 5.764698028564453 3.221231698989868 7.351160526275635 Z" stroke="none"/>
        <path d="M 3.231543779373169 1 C 2.001063823699951 1 1.000003814697266 2.001060009002686 1.000003814697266 3.231540203094482 C 1.000003814697266 4.225064277648926 1.779709339141846 5.436191082000732 3.212880611419678 6.688521385192871 C 5.054089546203613 5.005240440368652 5.463083744049072 3.889750957489014 5.463083744049072 3.231540203094482 C 5.463083744049072 2.001060009002686 4.462023735046387 1 3.231543779373169 1 M 3.231543779373169 0 C 5.016273498535156 0 6.463083744049072 1.446809768676758 6.463083744049072 3.231540203094482 C 6.463083744049072 5.016280174255371 4.634523868560791 6.824079990386963 3.231543779373169 8 C 1.628583908081055 6.746890068054199 3.814697265625e-06 5.016280174255371 3.814697265625e-06 3.231540203094482 C 3.814697265625e-06 1.446809768676758 1.446813583374023 0 3.231543779373169 0 Z" stroke="none" fill="#fff"/>
      </g>
    </g>
  </g>
</svg>
