<svg id="pic_placeholder" xmlns="http://www.w3.org/2000/svg" width="170" height="170" viewBox="0 0 170 170">
  <rect id="Area" width="170" height="170" fill="none"/>
  <g id="Group_16" data-name="Group 16" transform="translate(30.946 31.955)">
    <path id="Path_19" data-name="Path 19" d="M42.889,20,37.333,31.111H24a9.978,9.978,0,0,0-10,10V76.667a9.978,9.978,0,0,0,10,10H84a9.978,9.978,0,0,0,10-10V41.111a9.978,9.978,0,0,0-10-10H70.667L65.111,20ZM54,41.111A17.778,17.778,0,1,1,36.222,58.889,17.811,17.811,0,0,1,54,41.111Zm0,4.444A13.333,13.333,0,1,0,67.333,58.889,13.3,13.3,0,0,0,54,45.556Z" transform="translate(0)" fill="#f7f5f2"/>
  </g>
</svg>
