<svg id="Ico_Person" data-name="Ico Person" xmlns="http://www.w3.org/2000/svg" width="170" height="170" viewBox="0 0 170 170">
  <rect id="Area" width="170" height="170" fill="none"/>
    <g id="Group_16" data-name="Group 16" transform="translate(45 40)">
    <path id="Pfad_71" data-name="Pfad 71" d="M663.758,658.4a20.816,20.816,0,1,1-20.812-20.819A20.815,20.815,0,0,1,663.758,658.4Z" transform="translate(-603.851 -637.581)" fill="#f7f5f2"/>
    <path id="Pfad_72" data-name="Pfad 72" d="M666.886,750.122l-3.466,2.569a58.913,58.913,0,0,1-4.915,3.351l-1.9.891a63.454,63.454,0,0,1-57.409,0l-2.012-1.006a58.09,58.09,0,0,1-4.805-3.351l-3.685-2.455a33.508,33.508,0,0,1,33.507-30.38h11.169A33.513,33.513,0,0,1,666.886,750.122Z" transform="translate(-588.697 -674.824)" fill="#f7f5f2"/>
  </g>
</svg>
